<svg viewBox="0 0 300 400" xmlns="http://www.w3.org/2000/svg">
  <defs>
    <linearGradient id="pinkGrad" x1="0%" y1="0%" x2="100%" y2="100%">
      <stop offset="0%" style="stop-color:#ff9a9e;stop-opacity:1" />
      <stop offset="100%" style="stop-color:#fecfef;stop-opacity:1" />
    </linearGradient>
    <pattern id="fishnets" patternUnits="userSpaceOnUse" width="8" height="8">
      <rect width="8" height="8" fill="none"/>
      <path d="M0,0 L8,8 M8,0 L0,8" stroke="#333" stroke-width="0.5" opacity="0.8"/>
    </pattern>
    <filter id="confidence-glow">
      <feGaussianBlur stdDeviation="2" result="coloredBlur"/>
      <feMerge> 
        <feMergeNode in="coloredBlur"/>
        <feMergeNode in="SourceGraphic"/>
      </feMerge>
    </filter>
  </defs>
  
  <!-- Background -->
  <rect width="300" height="400" fill="url(#pinkGrad)"/>
  
  <!-- Studio floor -->
  <rect x="0" y="350" width="300" height="50" fill="#e0e0e0"/>
  <rect x="0" y="360" width="300" height="5" fill="#ccc"/>
  
  <!-- Dancer in confident pose -->
  <!-- Head -->
  <circle cx="150" cy="70" r="16" fill="#d4a574"/>
  
  <!-- Hair -->
  <path d="M134,60 Q125,45 140,40 Q150,35 160,40 Q175,45 166,60 Q160,70 150,75 Q140,70 134,60" fill="#654321"/>
  
  <!-- Headband -->
  <rect x="140" y="55" width="20" height="5" fill="#333" rx="2"/>
  
  <!-- Confident expression -->
  <circle cx="145" cy="68" r="1" fill="#333"/>
  <circle cx="155" cy="68" r="1" fill="#333"/>
  <path d="M145,75 Q150,78 155,75" stroke="#333" stroke-width="1" fill="none"/>
  
  <!-- Neck -->
  <rect x="146" y="86" width="8" height="10" fill="#d4a574"/>
  
  <!-- White top -->
  <rect x="135" y="96" width="30" height="20" fill="#fff" rx="2"/>
  <path d="M140,96 L145,90 L155,90 L160,96" fill="#fff"/>
  
  <!-- Arms in confident pose -->
  <ellipse cx="120" cy="110" rx="7" ry="22" fill="#d4a574" transform="rotate(-45 120 110)"/>
  <ellipse cx="180" cy="110" rx="7" ry="22" fill="#d4a574" transform="rotate(45 180 110)"/>
  
  <!-- Torso -->
  <rect x="142" y="116" width="16" height="35" fill="#d4a574"/>
  
  <!-- Pink shorts -->
  <rect x="135" y="151" width="30" height="25" fill="#ff6b9d" rx="4"/>
  
  <!-- Fishnet stockings (full length) -->
  <ellipse cx="145" cy="220" rx="9" ry="55" fill="url(#fishnets)"/>
  <ellipse cx="155" cy="220" rx="9" ry="55" fill="url(#fishnets)"/>
  
  <!-- Lower legs -->
  <ellipse cx="145" cy="290" rx="7" ry="30" fill="#d4a574"/>
  <ellipse cx="155" cy="290" rx="7" ry="30" fill="#d4a574"/>
  
  <!-- White sneakers -->
  <ellipse cx="145" cy="330" rx="14" ry="10" fill="#fff"/>
  <ellipse cx="155" cy="330" rx="14" ry="10" fill="#fff"/>
  <rect x="138" y="325" width="14" height="4" fill="#333"/>
  <rect x="148" y="325" width="14" height="4" fill="#333"/>
  
  <!-- Confidence aura -->
  <circle cx="150" cy="200" r="80" fill="none" stroke="#ffff00" stroke-width="1" opacity="0.3"/>
  <circle cx="150" cy="200" r="90" fill="none" stroke="#ffff00" stroke-width="0.5" opacity="0.2"/>
  
  <!-- Power sparkles -->
  <g opacity="0.9" filter="url(#confidence-glow)">
    <path d="M70,120 L72,127 L79,125 L72,132 L70,139 L68,132 L61,125 L68,127 Z" fill="#ff6b9d"/>
    <path d="M230,100 L231,105 L236,104 L231,109 L230,114 L229,109 L224,104 L229,105 Z" fill="#ff6b9d"/>
    <path d="M250,180 L251,183 L254,182 L251,185 L250,188 L249,185 L246,182 L249,183 Z" fill="#ff6b9d"/>
  </g>
  
  <!-- Style details -->
  <rect x="147" y="130" width="6" height="3" fill="#ff0080"/>
  <circle cx="150" cy="140" r="2" fill="#ff0080"/>
</svg>