<svg viewBox="0 0 400 300" xmlns="http://www.w3.org/2000/svg">
  <defs>
    <linearGradient id="backgroundGrad" x1="0%" y1="0%" x2="100%" y2="100%">
      <stop offset="0%" style="stop-color:#667eea;stop-opacity:1" />
      <stop offset="100%" style="stop-color:#764ba2;stop-opacity:1" />
    </linearGradient>
    <pattern id="fishnet" patternUnits="userSpaceOnUse" width="8" height="8">
      <rect width="8" height="8" fill="none"/>
      <path d="M0,0 L8,8 M8,0 L0,8" stroke="#333" stroke-width="0.5" opacity="0.6"/>
    </pattern>
    <filter id="glow">
      <feGaussianBlur stdDeviation="3" result="coloredBlur"/>
      <feMerge> 
        <feMergeNode in="coloredBlur"/>
        <feMergeNode in="SourceGraphic"/>
      </feMerge>
    </filter>
  </defs>
  
  <!-- Background -->
  <rect width="400" height="300" fill="url(#backgroundGrad)"/>
  
  <!-- Urban background elements -->
  <rect x="0" y="200" width="400" height="100" fill="#2a2a2a" opacity="0.3"/>
  <rect x="50" y="180" width="60" height="120" fill="#1a1a1a" opacity="0.4"/>
  <rect x="150" y="160" width="80" height="140" fill="#1a1a1a" opacity="0.4"/>
  <rect x="280" y="170" width="70" height="130" fill="#1a1a1a" opacity="0.4"/>
  
  <!-- Dancer silhouette in handstand -->
  <!-- Arms -->
  <ellipse cx="200" cy="220" rx="8" ry="25" fill="#d4a574" transform="rotate(-15 200 220)"/>
  <ellipse cx="200" cy="220" rx="8" ry="25" fill="#d4a574" transform="rotate(15 200 220)"/>
  
  <!-- Head -->
  <circle cx="200" cy="240" r="12" fill="#d4a574"/>
  
  <!-- Hair -->
  <path d="M188,235 Q185,225 190,220 Q195,215 205,220 Q210,225 207,235" fill="#8b4513"/>
  
  <!-- Torso -->
  <rect x="195" y="200" width="10" height="20" fill="#333" rx="2"/>
  
  <!-- Legs in fishnet stockings -->
  <ellipse cx="190" cy="150" rx="6" ry="35" fill="url(#fishnet)" transform="rotate(-20 190 150)"/>
  <ellipse cx="210" cy="140" rx="6" ry="35" fill="url(#fishnet)" transform="rotate(25 210 140)"/>
  
  <!-- Shorts -->
  <ellipse cx="200" cy="185" rx="12" ry="8" fill="#333"/>
  
  <!-- Shoes -->
  <ellipse cx="185" cy="115" rx="8" ry="4" fill="#000" transform="rotate(-20 185 115)"/>
  <ellipse cx="215" cy="105" rx="8" ry="4" fill="#000" transform="rotate(25 215 105)"/>
  
  <!-- Neon accent lights -->
  <circle cx="150" cy="100" r="3" fill="#ff0080" filter="url(#glow)" opacity="0.8"/>
  <circle cx="250" cy="80" r="2" fill="#00ff80" filter="url(#glow)" opacity="0.8"/>
  <circle cx="320" cy="120" r="2.5" fill="#8000ff" filter="url(#glow)" opacity="0.8"/>
  
  <!-- Stage lights effect -->
  <ellipse cx="200" cy="150" rx="60" ry="20" fill="#ffffff" opacity="0.1"/>
  
  <!-- Sparkle effects -->
  <g opacity="0.7">
    <path d="M100,60 L102,65 L107,63 L102,68 L100,73 L98,68 L93,63 L98,65 Z" fill="#ffff00"/>
    <path d="M300,50 L301,53 L304,52 L301,55 L300,58 L299,55 L296,52 L299,53 Z" fill="#ffff00"/>
    <path d="M350,90 L351,92 L353,91 L351,93 L350,95 L349,93 L347,91 L349,92 Z" fill="#ffff00"/>
  </g>
</svg>