<svg viewBox="0 0 400 300" xmlns="http://www.w3.org/2000/svg">
  <defs>
    <linearGradient id="streetGrad" x1="0%" y1="0%" x2="100%" y2="100%">
      <stop offset="0%" style="stop-color:#4facfe;stop-opacity:1" />
      <stop offset="100%" style="stop-color:#00f2fe;stop-opacity:1" />
    </linearGradient>
    <pattern id="streetFishnet" patternUnits="userSpaceOnUse" width="6" height="6">
      <rect width="6" height="6" fill="none"/>
      <path d="M0,0 L6,6 M6,0 L0,6" stroke="#000" stroke-width="0.4" opacity="0.9"/>
    </pattern>
    <pattern id="stripes" patternUnits="userSpaceOnUse" width="8" height="8">
      <rect width="8" height="4" fill="#fff"/>
      <rect width="8" height="4" y="4" fill="#000"/>
    </pattern>
  </defs>
  
  <!-- Sky background -->
  <rect width="400" height="300" fill="url(#streetGrad)"/>
  
  <!-- Street and buildings -->
  <rect x="0" y="200" width="400" height="100" fill="#666"/>
  <rect x="0" y="190" width="400" height="10" fill="#888"/>
  
  <!-- Buildings -->
  <rect x="0" y="100" width="80" height="100" fill="#333"/>
  <rect x="80" y="120" width="60" height="80" fill="#444"/>
  <rect x="140" y="80" width="70" height="120" fill="#333"/>
  <rect x="300" y="110" width="100" height="90" fill="#444"/>
  
  <!-- Windows -->
  <rect x="10" y="110" width="8" height="8" fill="#ffff80"/>
  <rect x="25" y="130" width="8" height="8" fill="#ffff80"/>
  <rect x="90" y="140" width="6" height="6" fill="#ffff80"/>
  <rect x="150" y="100" width="8" height="8" fill="#ffff80"/>
  <rect x="165" y="120" width="8" height="8" fill="#ffff80"/>
  
  <!-- Dancer walking -->
  <!-- Head -->
  <circle cx="200" cy="120" r="12" fill="#d4a574"/>
  
  <!-- Hair flowing -->
  <path d="M188,115 Q180,105 185,100 Q195,95 205,100 Q215,105 210,115 Q205,125 200,128 Q190,125 188,115" fill="#8b4513"/>
  
  <!-- Crop top -->
  <rect x="192" y="132" width="16" height="18" fill="#333" rx="2"/>
  
  <!-- Arms in walking motion -->
  <ellipse cx="185" cy="140" rx="5" ry="18" fill="#d4a574" transform="rotate(-20 185 140)"/>
  <ellipse cx="215" cy="140" rx="5" ry="18" fill="#d4a574" transform="rotate(20 215 140)"/>
  
  <!-- Torso -->
  <rect x="195" y="150" width="10" height="25" fill="#d4a574"/>
  
  <!-- Black shorts -->
  <rect x="190" y="175" width="20" height="15" fill="#000" rx="3"/>
  
  <!-- Fishnet stockings -->
  <ellipse cx="195" cy="220" rx="6" ry="35" fill="url(#streetFishnet)" transform="rotate(-5 195 220)"/>
  <ellipse cx="205" cy="225" rx="6" ry="35" fill="url(#streetFishnet)" transform="rotate(5 205 225)"/>
  
  <!-- Striped socks over fishnets -->
  <rect x="190" y="240" width="10" height="20" fill="url(#stripes)" rx="5"/>
  <rect x="200" y="245" width="10" height="20" fill="url(#stripes)" rx="5"/>
  
  <!-- Sneakers -->
  <ellipse cx="195" cy="270" rx="10" ry="6" fill="#000"/>
  <ellipse cx="205" cy="275" rx="10" ry="6" fill="#000"/>
  <rect x="188" y="267" width="14" height="3" fill="#fff"/>
  <rect x="198" y="272" width="14" height="3" fill="#fff"/>
  
  <!-- Movement lines -->
  <path d="M170,180 Q180,175 190,180" stroke="#fff" stroke-width="1.5" fill="none" opacity="0.5"/>
  <path d="M210,185 Q220,180 230,185" stroke="#fff" stroke-width="1.5" fill="none" opacity="0.5"/>
  
  <!-- Street style confidence -->
  <g opacity="0.7">
    <circle cx="150" cy="80" r="2" fill="#ff0080"/>
    <circle cx="250" cy="90" r="1.5" fill="#00ff80"/>
    <circle cx="280" cy="70" r="2.5" fill="#8000ff"/>
  </g>
  
  <!-- Urban atmosphere -->
  <rect x="0" y="0" width="400" height="300" fill="#000" opacity="0.1"/>
</svg>